<svg width="1009" height="327" viewBox="0 0 1009 327" fill="none" xmlns="http://www.w3.org/2000/svg">
<path fill-rule="evenodd" clip-rule="evenodd" d="M227.32 326.64C224.09 326.64 220.87 325.63 217.75 323.62L178.51 298.39C175.48 296.44 168.54 295.08 164.21 295.08L161.73 295.1H76.74C34.91 295.1 0.880005 261.08 0.880005 219.25V75.86C0.880005 34.03 34.91 0 76.74 0H213.98C255.81 0 289.84 34.03 289.84 75.86V219.25C289.84 248.84 272.48 275.89 245.58 288.23L241.92 290.27C241.92 290.55 241.92 290.84 241.92 291.01V310.42C241.92 321.07 234.57 326.64 227.32 326.64ZM164.15 282.79C169.34 282.79 179.16 284.19 185.16 288.05L224.4 313.28C225.48 313.98 226.5 314.35 227.32 314.35C229.22 314.35 229.62 312.21 229.62 310.42V291.02C229.62 288.48 229.61 283.18 234.81 280.16L240.26 277.14C262.91 266.84 277.54 244.12 277.54 219.25V75.86C277.54 40.81 249.03 12.3 213.98 12.3H76.74C41.69 12.3 13.18 40.81 13.18 75.86V219.25C13.18 254.3 41.69 282.81 76.74 282.81L164.15 282.79ZM124.72 193.58L195.05 193.72C199.68 193.72 203.62 195.34 206.86 198.59C210.2 201.92 211.87 205.9 211.87 210.54V210.82C211.87 215.45 210.2 219.43 206.86 222.77C203.62 226.01 199.68 227.63 195.05 227.63H104.29C93.36 227.63 85.71 222.49 81.36 212.21C79.69 208.41 78.86 204.75 78.86 201.23C78.86 195.02 81.5 189.27 86.78 183.99C95.86 174.54 109.66 160.08 128.2 140.63C144.41 123.58 156.83 110.56 165.45 101.57H101.23C96.51 101.57 92.52 99.9 89.28 96.57C86.04 93.23 84.42 89.29 84.42 84.76V84.34C84.42 79.8 86.04 75.86 89.28 72.52C92.52 69.19 96.51 67.52 101.23 67.52H185.18C196.39 67.52 204.22 72.66 208.67 82.95C210.34 86.75 211.17 90.41 211.17 93.93C211.17 100.23 208.53 105.97 203.25 111.16C173.23 142.66 147.05 170.14 124.72 193.58ZM435.3 183.37C435.3 189.97 431.52 193.75 424.92 193.75H369.67C363.07 193.75 359.28 189.97 359.28 183.37C359.28 180.61 359.96 178.3 361.29 176.52L403.8 120.35H368.05C361.45 120.35 357.66 116.57 357.66 109.97C357.66 103.37 361.45 99.58 368.05 99.58H423.3C429.9 99.58 433.68 103.37 433.68 109.97C433.68 112.73 433.01 115.03 431.67 116.81L389.31 172.99H424.92C431.52 172.99 435.3 176.77 435.3 183.37ZM531.59 121.38C535.01 128.32 536.74 136.37 536.74 145.29C536.74 148.07 535.72 150.53 533.78 152.39C531.86 154.25 529.41 155.19 526.52 155.19H468.34C469.79 160.62 472.63 165.03 476.99 168.59C482.2 172.86 488.43 174.93 496.06 174.93C498.98 174.93 502.09 174.38 505.29 173.3C508.51 172.21 511.16 170.88 513.17 169.34C515.15 167.79 517.52 166.99 520.2 166.99C522.95 166.99 525.21 167.78 526.92 169.33C529.43 171.42 530.74 173.98 530.74 176.89C530.74 179.7 529.47 182.15 527.04 183.96C523.2 187.02 518.31 189.57 512.58 191.5C506.86 193.43 501.31 194.4 496.06 194.4C486.77 194.4 478.31 192.35 470.91 188.31C463.47 184.25 457.58 178.53 453.4 171.31C449.22 164.11 447.11 155.84 447.11 146.75C447.11 137.68 449.1 129.42 453.03 122.18C456.99 114.89 462.58 109.14 469.64 105.06C476.68 101 484.75 98.94 493.63 98.94C502.41 98.94 510.15 100.93 516.61 104.84C523.09 108.78 528.13 114.35 531.59 121.38ZM476.25 124.2C472.54 127.46 470 131.57 468.57 136.69H515.76C514.59 131.55 512.34 127.32 509.03 124.1C505.1 120.27 500.06 118.4 493.63 118.4C486.37 118.4 480.69 120.3 476.25 124.2ZM644.98 143.02V182.88C644.98 186.01 643.92 188.66 641.82 190.75C639.72 192.85 637.08 193.91 633.95 193.91C630.82 193.91 628.17 192.85 626.08 190.75C623.98 188.66 622.92 186.01 622.92 182.88V143.02C622.92 135.1 620.84 129.1 616.73 125.17C612.52 121.16 607.03 119.21 599.92 119.21C595.84 119.21 592.08 120.05 588.75 121.69C585.48 123.3 582.89 125.49 581.07 128.2C579.26 130.89 578.38 133.83 578.38 137.19V182.88C578.38 185.99 577.36 188.63 575.34 190.72C573.29 192.84 570.6 193.91 567.35 193.91C564.22 193.91 561.58 192.85 559.48 190.75C557.39 188.66 556.32 186.01 556.32 182.88V110.62C556.32 107.36 557.4 104.68 559.51 102.63C561.61 100.61 564.24 99.59 567.35 99.59C570.58 99.59 573.26 100.62 575.3 102.66C576.49 103.85 577.33 105.24 577.83 106.84C580.57 104.8 583.61 103.12 586.91 101.81C591.97 99.79 597.44 98.77 603.16 98.77C611.05 98.77 618.26 100.52 624.58 103.97C630.97 107.46 636.03 112.61 639.62 119.27C643.18 125.86 644.98 133.86 644.98 143.02ZM740.57 182.07C741.54 183.15 742.03 184.4 742.03 185.8C742.03 187.42 741.27 188.88 739.76 190.17C738.46 191.15 737.17 191.63 735.87 191.63C734.14 191.63 732.68 190.88 731.5 189.36L698.12 148.37L685.96 159.39V184.83C685.96 186.67 685.4 188.15 684.26 189.28C683.13 190.42 681.64 190.98 679.81 190.98C677.97 190.98 676.48 190.42 675.35 189.28C674.22 188.15 673.65 186.67 673.65 184.83V70.59C673.65 68.76 674.22 67.27 675.35 66.13C676.48 65 677.97 64.43 679.81 64.43C681.64 64.43 683.13 65 684.26 66.13C685.4 67.27 685.96 68.76 685.96 70.59V144.32L731.66 103C732.85 101.92 734.14 101.38 735.55 101.38C737.17 101.38 738.52 102.02 739.6 103.32C740.79 104.73 741.38 106.02 741.38 107.21C741.38 108.72 740.68 110.07 739.27 111.26L706.87 140.59L740.57 182.07ZM797.44 180.37C798.42 181.51 798.9 182.99 798.9 184.83C798.9 186.67 798.23 188.15 796.88 189.28C795.53 190.42 793.77 190.99 791.61 190.99H789.51C782.91 190.99 777.54 188.37 773.38 183.13C769.22 177.89 767.14 171.17 767.14 162.95V70.59C767.14 68.76 767.74 67.27 768.92 66.13C770.11 65 771.57 64.43 773.3 64.43C775.14 64.43 776.62 65 777.76 66.13C778.89 67.27 779.46 68.76 779.46 70.59V162.95C779.46 167.6 780.4 171.38 782.29 174.29C784.18 177.21 786.59 178.67 789.51 178.67H793.56C795.18 178.67 796.47 179.24 797.44 180.37ZM892.73 104.05C893.92 105.19 894.52 106.67 894.52 108.51V184.66C894.52 186.5 893.92 188.02 892.73 189.2C891.54 190.39 890.03 190.99 888.2 190.99C886.36 190.99 884.87 190.39 883.74 189.2C882.61 188.02 882.04 186.5 882.04 184.66V179.15C878.47 183.15 874.15 186.29 869.08 188.56C864 190.82 858.49 191.96 852.55 191.96C844.88 191.96 837.99 190.34 831.89 187.1C825.78 183.85 821 179.13 817.55 172.92C814.09 166.71 812.36 159.28 812.36 150.63V108.51C812.36 106.78 812.95 105.32 814.14 104.13C815.33 102.95 816.79 102.35 818.52 102.35C820.36 102.35 821.87 102.95 823.06 104.13C824.24 105.32 824.84 106.78 824.84 108.51V150.63C824.84 160.26 827.51 167.57 832.86 172.59C838.21 177.62 845.2 180.13 853.84 180.13C859.14 180.13 863.92 179.1 868.19 177.05C872.45 175 875.82 172.16 878.31 168.54C880.8 164.93 882.04 160.9 882.04 156.47V108.51C882.04 106.67 882.61 105.19 883.74 104.05C884.87 102.92 886.36 102.35 888.2 102.35C890.03 102.35 891.54 102.92 892.73 104.05ZM1008.6 146.59C1008.6 155.01 1006.63 162.69 1002.69 169.6C998.74 176.51 993.35 181.94 986.49 185.88C979.63 189.82 971.98 191.8 963.56 191.8C955.13 191.8 947.49 189.82 940.63 185.88C933.77 181.94 928.37 176.51 924.42 169.6C920.48 162.69 918.51 155.01 918.51 146.59V108.51C918.51 107.86 918.56 107.37 918.67 107.05V70.75C918.67 68.92 919.24 67.4 920.37 66.22C921.51 65.03 922.99 64.43 924.83 64.43C926.66 64.43 928.18 65.03 929.37 66.22C930.55 67.4 931.15 68.92 931.15 70.75V118.23C934.93 113.05 939.74 108.97 945.57 106C951.4 103.03 957.83 101.54 964.85 101.54C973.06 101.54 980.49 103.51 987.13 107.45C993.78 111.4 999.02 116.8 1002.85 123.66C1006.68 130.52 1008.6 138.16 1008.6 146.59ZM996.45 146.59C996.45 140.21 995.02 134.46 992.16 129.33C989.29 124.2 985.35 120.17 980.33 117.26C975.3 114.34 969.71 112.88 963.56 112.88C955.02 112.88 947.76 115.59 941.76 120.98C935.77 126.39 932.23 133.3 931.15 141.73C931.15 142.05 931.09 142.32 930.99 142.54C930.88 143.4 930.83 144.75 930.83 146.59C930.83 152.96 932.26 158.72 935.12 163.85C937.98 168.98 941.9 173.02 946.87 176C951.83 178.97 957.4 180.45 963.56 180.45C969.71 180.45 975.3 178.97 980.33 176C985.35 173.02 989.29 168.98 992.16 163.85C995.02 158.72 996.45 152.96 996.45 146.59Z" fill="#7655e9"/>
</svg>
